<svg width="100" height="100" viewBox="0 0 100 100" fill="none" xmlns="http://www.w3.org/2000/svg">
  <circle cx="50" cy="50" r="40" fill="#2962FF" fill-opacity="0.1"/>
  <path d="M50 20C33.4315 20 20 33.4315 20 50C20 66.5685 33.4315 80 50 80C66.5685 80 80 66.5685 80 50C80 33.4315 66.5685 20 50 20ZM50 72.5C37.5736 72.5 27.5 62.4264 27.5 50C27.5 37.5736 37.5736 27.5 50 27.5C62.4264 27.5 72.5 37.5736 72.5 50C72.5 62.4264 62.4264 72.5 50 72.5Z" fill="#2962FF"/>
  <path d="M42.5 40L62.5 50L42.5 60V40Z" fill="#2962FF"/>
</svg>