<svg width="200" height="200" viewBox="0 0 200 200" fill="none" xmlns="http://www.w3.org/2000/svg">
  <circle cx="100" cy="100" r="80" fill="#2962FF" fill-opacity="0.1"/>
  <path d="M100 40C66.8629 40 40 66.8629 40 100C40 133.137 66.8629 160 100 160C133.137 160 160 133.137 160 100C160 66.8629 133.137 40 100 40ZM100 145C75.1472 145 55 124.853 55 100C55 75.1472 75.1472 55 100 55C124.853 55 145 75.1472 145 100C145 124.853 124.853 145 100 145Z" fill="#2962FF"/>
  <path d="M85 80L125 100L85 120V80Z" fill="#2962FF"/>
  <text x="100" y="185" text-anchor="middle" font-family="Arial" font-size="20" font-weight="bold" fill="#2962FF">STUDENTVERSE</text>
</svg>